<svg xmlns="http://www.w3.org/2000/svg" width="150" height="150" style="width:100%;height:100%;transform:translate3d(0,0,0);content-visibility:visible"><defs><clipPath id="a"><path d="M0 0h150v150H0z"/></clipPath></defs><g clip-path="url(#a)"><g style="display:block"><path fill="#FFF" d="M75 55.25c10.899 0 19.748 8.85 19.748 19.75 0 10.899-8.85 19.748-19.749 19.748-10.9 0-19.749-8.85-19.749-19.749C55.25 64.1 64.1 55.25 75 55.25"/><path fill="none" stroke="#D5D5D5" stroke-width="1.77001" d="M75 55.25c10.899 0 19.748 8.85 19.748 19.75 0 10.899-8.85 19.748-19.749 19.748-10.9 0-19.749-8.85-19.749-19.749C55.25 64.1 64.1 55.25 75 55.25z"/></g><g fill="none" style="display:block"><path d="M74.715 31.63c24.016 0 43.515 19.499 43.515 43.515s-19.5 43.515-43.515 43.515-43.516-19.499-43.516-43.515S50.7 31.63 74.715 31.63"/><path d="M74.715 31.63c24.016 0 43.515 19.499 43.515 43.515s-19.5 43.515-43.515 43.515-43.516-19.499-43.516-43.515S50.7 31.63 74.715 31.63"/></g><path fill="#D51600" d="M0-5.034A5.036 5.036 0 0 1 5.034 0 5.036 5.036 0 0 1 0 5.034 5.036 5.036 0 0 1-5.034 0 5.036 5.036 0 0 1 0-5.034" style="display:block" transform="translate(75.004 74.775)scale(5.0752)"/><g opacity=".12" style="display:block"><path fill="#D51600" d="M74.73 35.841c21.69 0 39.301 17.611 39.301 39.302s-17.61 39.302-39.301 39.302c-21.69 0-39.302-17.611-39.302-39.302S53.04 35.841 74.73 35.841" opacity="1"/></g><g style="display:block"><path fill="none" stroke="#FFF" stroke-linecap="round" stroke-linejoin="round" stroke-width="3.00044" d="M80.336 80.392 69.835 69.928m.017 10.479 10.464-10.502"/></g><g style="display:block"><path fill="#D22E2E" d="M85.183 28.055c1.254.285 1.996 1.729 1.657 3.222-.34 1.494-1.634 2.475-2.888 2.19s-1.997-1.73-1.657-3.223c.34-1.494 1.633-2.475 2.888-2.19M71.64 27.466c.699.155 1.116.956.931 1.787-.184.831-.9 1.38-1.599 1.226-.698-.155-1.115-.956-.93-1.787s.9-1.38 1.598-1.226"/></g><g style="display:block"><path fill="#D22E2E" d="M117.328 52.54c.588 1.145-.041 2.642-1.403 3.342s-2.946.339-3.534-.805.041-2.641 1.404-3.341 2.945-.34 3.533.805M109.074 41.788c.33.635-.015 1.469-.77 1.862-.756.393-1.637.198-1.967-.437-.33-.634.015-1.468.77-1.862.756-.393 1.637-.197 1.967.437"/></g><g style="display:block"><path fill="#D22E2E" d="M119.233 92.905c-.498 1.185-2.05 1.666-3.461 1.072s-2.153-2.038-1.655-3.224c.499-1.185 2.05-1.666 3.462-1.072 1.411.594 2.153 2.038 1.654 3.224M122.164 79.67c-.273.661-1.134.933-1.921.607s-1.203-1.127-.93-1.787c.274-.661 1.135-.933 1.922-.607s1.203 1.127.93 1.788"/></g><g style="display:block"><path fill="#D22E2E" d="M89.537 120.31c-1.229.38-2.594-.5-3.046-1.962-.453-1.464.177-2.96 1.406-3.34s2.594.499 3.046 1.962c.453 1.463-.177 2.96-1.406 3.34M101.56 114.048c-.683.215-1.444-.27-1.7-1.081-.256-.813.09-1.647.771-1.862.683-.215 1.444.27 1.7 1.082s-.09 1.646-.772 1.861"/></g><g style="display:block"><path fill="#D22E2E" d="M49.455 115.177c-1.08-.697-1.285-2.308-.455-3.595s2.382-1.767 3.463-1.07 1.285 2.308.455 3.595-2.382 1.767-3.463 1.07M61.98 120.362c-.604-.385-.722-1.28-.264-1.998s1.319-.989 1.922-.605c.603.385.721 1.28.263 1.998s-1.318.989-1.921.605"/></g><g style="display:block"><path fill="#D22E2E" d="M27.623 81.173c-.16-1.276.942-2.468 2.462-2.66 1.52-.191 2.884.69 3.045 1.966.16 1.276-.942 2.467-2.462 2.66-1.52.19-2.884-.69-3.045-1.966M31.702 94.1c-.093-.709.516-1.375 1.36-1.486s1.606.374 1.7 1.083c.093.71-.517 1.375-1.361 1.486s-1.606-.374-1.699-1.083"/></g><g style="display:block"><path fill="#D22E2E" d="M39.638 42.592c.874-.944 2.496-.865 3.62.176 1.123 1.04 1.326 2.652.452 3.595s-2.496.865-3.62-.176c-1.123-1.04-1.326-2.652-.452-3.595M32.358 54.025c.483-.527 1.385-.488 2.013.087.627.576.745 1.47.262 1.998-.484.527-1.386.488-2.013-.087-.628-.575-.746-1.47-.262-1.998"/></g></g></svg>