<svg xmlns="http://www.w3.org/2000/svg" width="689" height="551" style="width:100%;height:100%;transform:translate3d(0,0,0);content-visibility:visible"><defs><clipPath id="a"><path d="M0 0h689v551H0z"/></clipPath></defs><g clip-path="url(#a)"><g style="display:block"><path fill="#FFF" d="M467.066 131.102c0 19.479-15.791 35.27-35.271 35.27-19.479 0-35.27-15.791-35.27-35.27s15.791-35.271 35.27-35.271 35.271 15.792 35.271 35.271"/><path fill="#FFF" d="M460.068 131.102c0 15.614-12.658 28.272-28.272 28.272-15.615 0-28.273-12.658-28.273-28.272 0-15.615 12.658-28.273 28.273-28.273s28.272 12.658 28.272 28.273"/><path fill="#2853FF" d="M451.242 131.102c0 10.74-8.708 19.448-19.448 19.448s-19.448-8.708-19.448-19.448 8.708-19.448 19.448-19.448 19.448 8.707 19.448 19.448"/></g><path fill="#E1E3EE" d="M-190.678-108.24h-1.356v69.524h-7.876v6.518h-2.891v7.474h-3.22v54.448h-6.169v78.517h424.38V27.533l-20.261-8.542V5.281h-3.531V-9.384h-1.901v-9.777h-17.925v9.777h-1.9V5.281h-2.99v25.258h-9.505v-43.725h-21.998v-29.331h-12.492v-7.605h-7.877v-9.777H91.442v86.907H72.16V-1.237h-3.531V-16.99H33.322v15.753h-2.443v37.478H22.46V12.614H5.622v-32.795H2.905v-7.67h-24.714v7.67h-2.173v42.029h-8.146V4.467h-1.902v-5.704h-17.381v5.704h-2.173v31.774h-8.419V14.516h-14.665V-8.298l-27.159-11.883v57.646h-11.95V21.848h-17.653V-1.237h-3.802v-7.061h-20.912v7.061h-1.901v39.651h-10.591v-8.69h-6.054v-54.448h-3.22v-7.474h-2.891v-6.518h-7.877z" style="display:block" transform="matrix(.815 0 0 .815 130.351 284.863)"/><path fill="#E1E3EE" d="M-190.678-108.24h-1.356v69.524h-7.876v6.518h-2.891v7.474h-3.22v54.448h-6.169v78.517h424.38V27.533l-20.261-8.542V5.281h-3.531V-9.384h-1.901v-9.777h-17.925v9.777h-1.9V5.281h-2.99v25.258h-9.505v-43.725h-21.998v-29.331h-12.492v-7.605h-7.877v-9.777H91.442v86.907H72.16V-1.237h-3.531V-16.99H33.322v15.753h-2.443v37.478H22.46V12.614H5.622v-32.795H2.905v-7.67h-24.714v7.67h-2.173v42.029h-8.146V4.467h-1.902v-5.704h-17.381v5.704h-2.173v31.774h-8.419V14.516h-14.665V-8.298l-27.159-11.883v57.646h-11.95V21.848h-17.653V-1.237h-3.802v-7.061h-20.912v7.061h-1.901v39.651h-10.591v-8.69h-6.054v-54.448h-3.22v-7.474h-2.891v-6.518h-7.877z" style="display:block" transform="matrix(.815 0 0 .815 473.351 284.863)"/><path fill="#E1E3EE" d="M-190.678-108.24h-1.356v69.524h-7.876v6.518h-2.891v7.474h-3.22v54.448h-6.169v78.517h424.38V27.533l-20.261-8.542V5.281h-3.531V-9.384h-1.901v-9.777h-17.925v9.777h-1.9V5.281h-2.99v25.258h-9.505v-43.725h-21.998v-29.331h-12.492v-7.605h-7.877v-9.777H91.442v86.907H72.16V-1.237h-3.531V-16.99H33.322v15.753h-2.443v37.478H22.46V12.614H5.622v-32.795H2.905v-7.67h-24.714v7.67h-2.173v42.029h-8.146V4.467h-1.902v-5.704h-17.381v5.704h-2.173v31.774h-8.419V14.516h-14.665V-8.298l-27.159-11.883v57.646h-11.95V21.848h-17.653V-1.237h-3.802v-7.061h-20.912v7.061h-1.901v39.651h-10.591v-8.69h-6.054v-54.448h-3.22v-7.474h-2.891v-6.518h-7.877z" style="display:block" transform="matrix(.815 0 0 .815 819.351 284.863)"/><g style="display:block"><path fill="#20B0B0" d="M489.949 324.277c0 21.869-6.235 39.599-13.927 39.599-7.69 0-13.925-17.73-13.925-39.599s6.235-39.597 13.925-39.597c7.692 0 13.927 17.728 13.927 39.597"/><path fill="#002A2A" d="M476.024 376.593a.71.71 0 0 1-.71-.709v-71.658a.708.708 0 1 1 1.417 0v71.658a.707.707 0 0 1-.707.709"/><path fill="#002A2A" d="M476.023 320.704a.71.71 0 0 1-.502-1.209l5.663-5.663a.71.71 0 0 1 1.003 1.002l-5.663 5.663a.7.7 0 0 1-.501.207M476.023 340.765a.71.71 0 0 1-.502-1.21l5.663-5.663a.71.71 0 0 1 1.003 1.002l-5.663 5.663a.7.7 0 0 1-.501.208M476.023 357.784a.708.708 0 0 1-.502-1.209l5.663-5.663a.71.71 0 0 1 1.003 1.002l-5.663 5.664a.7.7 0 0 1-.501.206M476.023 327.593a.7.7 0 0 1-.502-.208l-5.663-5.663a.71.71 0 0 1 1.003-1.002l5.663 5.663a.71.71 0 0 1-.501 1.21M476.023 313.941a.7.7 0 0 1-.502-.208l-5.663-5.663a.71.71 0 0 1 1.003-1.002l5.663 5.663a.71.71 0 0 1-.501 1.21M476.023 349.659a.7.7 0 0 1-.502-.208l-5.663-5.663a.71.71 0 0 1 1.003-1.002l5.663 5.663a.71.71 0 0 1-.501 1.21"/></g><g style="display:block"><path fill="#20B0B0" d="M1227.39 324.277c0 21.869-6.235 39.599-13.927 39.599-7.69 0-13.925-17.73-13.925-39.599s6.235-39.597 13.925-39.597c7.692 0 13.927 17.728 13.927 39.597"/><path fill="#002A2A" d="M1213.465 376.593a.71.71 0 0 1-.709-.709v-71.658a.708.708 0 1 1 1.416 0v71.658a.707.707 0 0 1-.707.709"/><path fill="#002A2A" d="M1213.464 320.704a.71.71 0 0 1-.502-1.209l5.663-5.663a.71.71 0 0 1 1.003 1.002l-5.663 5.663a.7.7 0 0 1-.5.207M1213.464 340.765a.71.71 0 0 1-.502-1.21l5.663-5.663a.71.71 0 0 1 1.003 1.002l-5.663 5.663a.7.7 0 0 1-.5.208M1213.464 357.784a.708.708 0 0 1-.502-1.209l5.663-5.663a.71.71 0 0 1 1.003 1.002l-5.663 5.664a.7.7 0 0 1-.5.206M1213.464 327.593a.7.7 0 0 1-.502-.208l-5.663-5.663a.71.71 0 0 1 1.003-1.002l5.663 5.663a.71.71 0 0 1-.5 1.21M1213.464 313.941a.7.7 0 0 1-.502-.208l-5.663-5.663a.71.71 0 0 1 1.003-1.002l5.663 5.663a.71.71 0 0 1-.5 1.21M1213.464 349.659a.7.7 0 0 1-.502-.208l-5.663-5.663a.71.71 0 0 1 1.003-1.002l5.663 5.663a.71.71 0 0 1-.5 1.21"/></g><path fill="#91A6FE" d="M35.066 11.327a6.6 6.6 0 0 0-4.117-4.797A6.59 6.59 0 0 0 24.41.722c-.578 0-1.136.081-1.669.221a6.59 6.59 0 0 0-6.411-5.086c-.794 0-1.551.147-2.256.404-.812-4.319-4.596-7.588-9.151-7.588-4.984 0-9.043 3.915-9.296 8.836l-.024-.001a6.59 6.59 0 0 0-6.271 8.608c-.106-.008-.21-.017-.318-.017-.734 0-1.426.176-2.041.483a6.588 6.588 0 0 0-13.096.01 6.6 6.6 0 0 0-2.495-.493 6.59 6.59 0 0 0-6.448 5.228z" style="display:block" transform="translate(394.07 145.515)"/><path fill="#FFF" d="M25.585 8.264a4.82 4.82 0 0 0-3.005-3.5A4.804 4.804 0 0 0 17.809.527c-.421 0-.829.059-1.217.161a4.81 4.81 0 0 0-4.678-3.711c-.579 0-1.131.108-1.644.295a6.8 6.8 0 0 0-6.679-5.536c-3.637 0-6.597 2.856-6.782 6.447l-.018-.001a4.808 4.808 0 0 0-4.576 6.28q-.115-.01-.232-.011c-.535 0-1.04.127-1.489.352a4.805 4.805 0 0 0-9.555.007 4.808 4.808 0 0 0-6.524 3.454z" style="display:block" transform="translate(175.937 172.085)"/><path fill="#D8DBE8" d="M-166.203 0c0 3.206 74.412 5.805 166.203 5.805S166.203 3.206 166.203 0 91.791-5.804 0-5.804-166.203-3.206-166.203 0" style="display:block" transform="translate(316.728 439.502)"/><g style="display:block"><path fill="#D8DBE8" d="M157.726 305.756v35.494h50.878v-41.772h-44.601c-3.449 0-6.277 2.829-6.277 6.278M220.539 341.25h50.878v-41.772h-50.878zM283.353 341.25h50.844v-41.772h-50.844zM346.165 341.25h50.846v-41.772h-50.846zM408.98 299.478v41.772h57.95l-2.484-25.008c-.966-9.555-8.9-16.764-18.488-16.764z"/><path fill="#DFE1E6" d="M411.601 360.015a2.62 2.62 0 0 0-2.622 2.622c0 1.483 1.173 2.656 2.622 2.656h9.658c1.449 0 2.622-1.173 2.622-2.656a2.62 2.62 0 0 0-2.622-2.622z"/></g><g style="display:block"><path fill="#A3B5FF" d="M412.684 357.314h9.66a2.62 2.62 0 0 1 2.62 2.622c0 1.483-1.173 2.656-2.62 2.656h-9.66c-1.448 0-2.62-1.173-2.62-2.656a2.62 2.62 0 0 1 2.62-2.622m-246.942 49.81H147.77v3.656a4.28 4.28 0 0 0 4.278 4.278h315.723c9.797 0 17.455-8.452 16.49-18.213l-.933-9.141h-9.278a2.57 2.57 0 0 1-2.553-2.242l-2.138-17.177c-.207-1.518.966-2.898 2.518-2.898h9.243l-1.483-14.625H147.77v15.21h4.726c1.104 0 2.001.899 2.001 2.003v11.83c0 1.139-.897 2.035-2 2.035h-4.727v13.453h17.972c.828 0 1.483.69 1.483 1.518v8.83a1.47 1.47 0 0 1-1.483 1.483"/><path fill="#A3B5FF" d="m483.328 387.703-2.209-22.316h-9.244c-1.552 0-2.725 1.379-2.518 2.896l2.138 17.179a2.57 2.57 0 0 0 2.553 2.24h9.28"/><path fill="#3B5858" d="M383.26 415.055c0-17.567 14.24-31.808 31.807-31.808 17.566 0 31.807 14.24 31.807 31.808v.002H383.26zM181.263 415.055c0-17.567 14.24-31.808 31.807-31.808s31.807 14.24 31.807 31.808v.002h-63.614z"/><path fill="#A3B5FF" d="M410.062 296.778h36.978c9.59 0 17.524 7.209 18.49 16.764l2.482 25.009h-57.95zm-11.969 41.773h-50.845v-41.773h50.845zm-62.814 0h-50.844v-41.773h50.844zm-62.779 0h-50.879v-41.773h50.88zm-62.812-41.773v41.773H158.81v-35.494c0-3.45 2.827-6.28 6.276-6.28zM447.04 286.43H152.047c-2.345 0-4.276 1.933-4.276 4.278v60.054h331.866l-3.829-38.255c-1.449-14.798-13.9-26.077-28.768-26.077"/><path fill="#F6F7F7" d="M465.701 338.55h-2.644l-19.592-41.772h2.643zM430.443 296.778h5.29l19.59 41.772h-5.287zM413.453 296.778h7.933l19.593 41.772h-7.933z"/><path fill="#F6F6F8" d="M424.224 296.778h2.643l19.593 41.772h-2.643zM393.486 338.55h-2.645l-19.593-41.772h2.645zM358.227 296.778h5.288l19.592 41.772h-5.288zM352.008 296.778h2.643l19.593 41.772H371.6zM330.597 338.55h-2.644l-19.592-41.772h2.643zM295.338 296.778h5.288l19.592 41.772h-5.288zM289.12 296.778h2.642l19.593 41.772h-2.644z"/><path fill="#F6F7F7" d="M270.075 338.55h-2.644l-19.592-41.772h2.643z"/><path fill="#F6F6F8" d="M234.817 296.778h5.288l19.592 41.772h-5.288zM228.598 296.778h2.643l19.593 41.772h-2.644zM207.473 338.55h-2.644l-19.592-41.772h2.643zM172.215 296.778h5.288l19.594 41.772h-5.289z"/><path fill="#F6F7F7" d="M165.996 296.778h2.643l19.593 41.772h-2.644z"/></g><g style="display:block"><path fill="#5F7171" d="M433.715 435.396c9.742-10.344 9.254-26.63-1.09-36.372-10.345-9.743-26.631-9.255-36.374 1.09s-9.254 26.63 1.092 36.373c10.344 9.743 26.629 9.254 36.372-1.09"/><path fill="#D8DBE8" d="M422.187 424.54c3.747-3.979 3.56-10.242-.419-13.988-3.979-3.748-10.242-3.56-13.99.418-3.747 3.98-3.558 10.242.421 13.99s10.24 3.559 13.988-.42M399.403 435.193s-9.874-8.376-6.07-18.335c0 0 3.565 13.876 6.07 18.335"/></g><g style="display:block"><path fill="#A3B5FF" d="M304.626 369.53v4.287h-2.055c-.992 0-1.842.354-2.515 1.098a3.84 3.84 0 0 0-1.028 2.657v8.112h-4.038v-8.112c0-1.099.212-2.16.602-3.118a7.9 7.9 0 0 1 1.63-2.55 6.75 6.75 0 0 1 2.409-1.7 7 7 0 0 1 2.94-.639h2.055zM291.66 381.221v4.393h-2.021c-1.062 0-2.02-.212-2.94-.672a8.6 8.6 0 0 1-2.41-1.808 8.4 8.4 0 0 1-1.63-2.656 9 9 0 0 1-.601-3.26v-14.454h4.004v9.211h5.598v4.393h-5.598v.85c0 1.098.354 2.055 1.027 2.8.673.78 1.559 1.132 2.55 1.132h2.02zM262.575 377.607c0-1.098.212-2.16.637-3.118a8 8 0 0 1 1.7-2.549 9 9 0 0 1 2.55-1.737 7.8 7.8 0 0 1 3.118-.638q1.702 0 3.189.638a8.1 8.1 0 0 1 2.55 1.737 8.4 8.4 0 0 1 1.736 2.55 7.8 7.8 0 0 1 .638 3.117v8.114h-4.251v-8.114q0-.743-.32-1.487c-.212-.46-.46-.886-.814-1.204a4.2 4.2 0 0 0-1.204-.815c-.46-.213-.992-.284-1.524-.284-1.063 0-1.983.354-2.691 1.1-.744.743-1.1 1.628-1.1 2.69v8.114h-4.25v-8.114zM255.277 369.105h4.002v16.544h-4.002zM259.28 364.818a1.98 1.98 0 0 1-1.984 1.984 1.98 1.98 0 0 1-1.984-1.984 1.98 1.98 0 0 1 1.984-1.983c1.098-.035 1.984.885 1.984 1.983M363.115 369v14.453a8.3 8.3 0 0 1-.638 3.26 8.4 8.4 0 0 1-1.736 2.656c-.708.744-1.594 1.346-2.55 1.807-.993.46-2.02.673-3.118.673h-2.196v-4.393h2.196a3.73 3.73 0 0 0 2.232-.708c.638-.46 1.063-1.099 1.31-1.878a7 7 0 0 1-1.7.638 8 8 0 0 1-1.842.212c-1.098 0-2.161-.212-3.118-.673-.991-.46-1.841-1.027-2.55-1.807-.744-.743-1.311-1.629-1.736-2.657a8.4 8.4 0 0 1-.638-3.259V369h4.25v8.325c0 1.098.355 2.055 1.1 2.8.744.778 1.629 1.168 2.763 1.168q.744 0 1.488-.319c.46-.213.885-.496 1.204-.85.355-.354.603-.78.815-1.276a3.8 3.8 0 0 0 .319-1.523V369zM343.667 381.221v4.393h-2.021c-1.062 0-2.02-.212-2.94-.672a8.6 8.6 0 0 1-2.41-1.808 8.4 8.4 0 0 1-1.63-2.656 9 9 0 0 1-.601-3.26v-14.454h4.003v9.211h5.599v4.393h-5.6v.85c0 1.098.356 2.055 1.029 2.8.673.78 1.523 1.132 2.55 1.132h2.02zM326.768 369.105h4.002v16.544h-4.002zM320.498 380.122l-.143.106q-1.063 1.17-2.656 1.17c-1.027 0-1.914-.39-2.693-1.17a3.5 3.5 0 0 1-.815-1.274c-.177-.46-.247-.957-.247-1.489 0-1.027.353-1.877 1.097-2.586q.585-.584 1.275-.849a4.1 4.1 0 0 1 1.453-.284c.496 0 .958.07 1.418.248.46.176.886.461 1.24.815l.105.106 2.977-3.012-.106-.105c-.78-.779-1.665-1.382-2.657-1.77-.992-.39-1.984-.605-3.011-.605s-2.021.214-3.048.604c-.992.39-1.876.992-2.656 1.771a7.7 7.7 0 0 0-1.736 2.656 8.2 8.2 0 0 0-.568 3.011c0 1.063.178 2.055.568 3.047.39.956.956 1.842 1.736 2.622q1.169 1.222 2.656 1.807c.992.39 2.02.602 3.048.602 1.027 0 2.019-.212 3.01-.602q1.489-.585 2.658-1.807l.106-.107zM330.736 364.818a1.98 1.98 0 0 1-1.984 1.984 1.98 1.98 0 0 1-1.984-1.984 1.98 1.98 0 0 1 1.984-1.983c1.098-.035 1.984.885 1.984 1.983"/></g><g style="display:block"><path fill="#5F7171" d="M210.354 443.434c14.182.902 26.41-9.864 27.312-24.046s-9.865-26.41-24.046-27.312c-14.183-.902-26.41 9.865-27.312 24.046-.902 14.183 9.864 26.41 24.046 27.312"/><path fill="#D8DBE8" d="M211.359 427.632c5.454.347 10.157-3.793 10.504-9.248s-3.794-10.157-9.248-10.504a9.895 9.895 0 0 0-10.504 9.248 9.895 9.895 0 0 0 9.248 10.504M225.227 401.128s10.032 8.187 6.42 18.216c0 0-3.83-13.805-6.42-18.216"/></g></g></svg>