<svg xmlns="http://www.w3.org/2000/svg" width="700" height="290" style="width:100%;height:100%;transform:translate3d(0,0,0);content-visibility:visible"><defs><clipPath id="a"><path d="M0 0h700v290H0z"/></clipPath></defs><g clip-path="url(#a)"><g style="display:block"><path fill="#F7F7F7" d="m399.195 255.021-149.582 23.691c-5.076.804-9.836-2.616-10.631-7.638l-15.385-97.132c-.795-5.022 2.675-9.745 7.751-10.549l149.582-23.691c5.077-.805 9.836 2.616 10.632 7.638l15.384 97.131c.796 5.023-2.675 9.745-7.751 10.55"/><path fill="#E5E5E5" d="m417.571 252.111 50.572-8.01c5.072-.803 8.539-5.525 7.744-10.548l-15.384-97.132c-.795-5.022-5.553-8.442-10.625-7.639l-50.572 8.01c-5.072.803-8.54 5.526-7.744 10.548l15.384 97.132c.796 5.023 5.553 8.443 10.625 7.639"/><path fill="#D9DFE6" d="m349.848 206.789-108.619 17.204c-.466.074-.884-.127-.935-.448l-.799-5.041c-.05-.322.286-.643.751-.716l108.619-17.203c.466-.073.884.126.935.448l.798 5.041c.051.321-.284.641-.75.715M284.33 231.159l-40.947 6.485c-.462.073-.877-.129-.928-.45l-.798-5.041c-.051-.321.282-.64.743-.714l40.947-6.485c.462-.073.877.128.928.449l.798 5.041c.051.321-.282.642-.743.715M317.827 239.846l-72.28 11.448c-.463.073-.878-.128-.929-.449l-.8-5.041c-.051-.321.283-.641.745-.714l72.281-11.448c.462-.073.879.128.93.449l.798 5.041c.05.321-.282.641-.745.714M338.784 250.52l-91.068 14.424c-.467.074-.886-.127-.937-.448l-.798-5.041c-.051-.322.286-.642.752-.716l91.068-14.424c.467-.073.885.127.936.448l.798 5.041c.051.321-.285.642-.751.716"/><path fill="#0857A0" d="m449.878 128.782-50.571 8.01c-5.073.803-8.544 5.505-7.753 10.501l3.134 19.783 68.94-10.919-3.133-19.783c-.792-4.996-5.544-8.396-10.617-7.592"/><path fill="#0857A0" d="m380.93 139.702-149.582 23.691c-5.076.804-8.55 5.506-7.758 10.502l3.133 19.785 167.965-26.604-3.134-19.783c-.791-4.996-5.548-8.395-10.624-7.591"/><path fill="#E5E5E5" d="m392.858 151.946-1.13.181c-.373.058-.713-.123-.758-.407l-.432-2.736c-.045-.283.221-.559.594-.619l1.13-.179c.374-.059.712.122.756.405l.434 2.738c.045.282-.22.558-.594.617M407.565 244.752l-1.131.181c-.372.058-.712-.123-.757-.407l-.432-2.736c-.045-.283.221-.558.594-.618l1.13-.179c.374-.059.711.121.756.405l.434 2.737c.045.283-.22.558-.594.617M405.961 234.676l-1.131.179c-.372.06-.71-.11-.752-.377l-.947-5.981c-.043-.268.226-.533.598-.593l1.131-.178c.373-.06.71.11.752.377l.947 5.981c.043.268-.224.532-.598.592m-2.202-13.901-1.131.179c-.372.06-.71-.111-.752-.379l-.947-5.981c-.043-.268.226-.533.598-.593l1.131-.178c.374-.059.71.11.752.377l.947 5.983c.043.267-.224.533-.598.592m-2.203-13.903-1.129.179c-.373.058-.71-.11-.753-.377l-.948-5.981c-.042-.268.227-.534.599-.592l1.131-.179c.374-.059.71.108.753.377l.947 5.981c.042.267-.226.532-.6.592m-2.201-13.902-1.131.178c-.372.06-.71-.109-.752-.378l-.948-5.982c-.042-.268.227-.532.6-.591l1.13-.178c.374-.06.71.109.753.376l.947 5.983c.042.267-.225.532-.599.592m-2.202-13.904-1.131.18c-.372.059-.71-.11-.752-.378l-.947-5.981c-.043-.268.226-.533.599-.592l1.13-.179c.374-.059.711.111.753.378l.947 5.981c.043.267-.225.533-.599.591m-2.202-13.901-1.131.179c-.372.058-.71-.111-.752-.378l-.947-5.98c-.043-.268.226-.534.599-.592l1.13-.18c.374-.059.71.109.752.378l.948 5.981c.043.267-.225.532-.599.592"/><path fill="#0857A0" d="m440.606 227.904 4.301-2.39 1.089-22.66 11.828-6.571c1.785-.992 2.417-3.19 1.414-4.921s-3.253-2.328-5.038-1.336l-11.829 6.571-20.418-10.711-4.302 2.39 15.041 13.698-11.828 6.573-5.642-2.38-3.226 1.793 6.38 6.104 2.078 8.495 3.225-1.792.81-5.964 11.828-6.571z"/></g><path fill="#E5E5E5" d="M53.937-6.833-53.937-6.98l14.354 13.96z" style="display:block" transform="translate(293.905 271.224)"/><g style="display:block"><path fill="#F7F7F7" d="M391.655 263.94H240.209c-5.14 0-9.306-4.121-9.306-9.206V156.39c0-5.084 4.166-9.206 9.306-9.206h151.446c5.14 0 9.306 4.122 9.306 9.206v98.344c0 5.085-4.166 9.206-9.306 9.206M410.261 263.94h51.201c5.136 0 9.299-4.121 9.299-9.206V156.39c0-5.084-4.163-9.206-9.299-9.206h-51.201c-5.136 0-9.3 4.122-9.3 9.206v98.344c0 5.085 4.164 9.206 9.3 9.206"/><path fill="#D9DFE6" d="M350.46 208.583H240.487c-.472 0-.853-.264-.853-.589v-5.103c0-.326.382-.59.853-.59H350.46c.472 0 .854.264.854.59v5.102c0 .326-.382.59-.854.59M281.937 222.403H240.48c-.467 0-.846-.265-.846-.59v-5.102c0-.327.379-.59.846-.59h41.457c.468 0 .845.264.845.59v5.102c0 .325-.378.59-.845.59M313.662 236.224h-73.181c-.468 0-.847-.264-.847-.588v-5.104c0-.326.379-.59.847-.59h73.181c.468 0 .848.264.848.59v5.102c0 .325-.38.59-.848.59M332.692 250.044h-92.204c-.472 0-.854-.265-.854-.59v-5.103c0-.326.382-.589.854-.589h92.204c.472 0 .854.263.854.589v5.103c0 .325-.382.59-.854.59"/><path fill="#0857A0" d="M461.462 147.185h-51.203c-5.135 0-9.298 4.101-9.298 9.159v20.029h69.8v-20.029c0-5.058-4.162-9.159-9.299-9.159M391.655 147.185H240.209c-5.14 0-9.306 4.101-9.306 9.159v20.029h170.058v-20.029c0-5.058-4.166-9.159-9.306-9.159"/><path fill="#E5E5E5" d="M401.521 161.144h-1.146c-.376 0-.683-.232-.683-.519v-2.77c0-.286.307-.519.683-.519h1.146c.379 0 .685.233.685.519v2.77c0 .287-.306.519-.685.519M401.529 255.108h-1.146c-.376 0-.683-.231-.683-.519v-2.77c0-.287.307-.519.683-.519h1.146c.379 0 .685.232.685.519v2.77c0 .288-.306.519-.685.519M401.521 244.904h-1.146c-.376 0-.683-.219-.683-.49v-6.056c0-.27.307-.49.683-.49h1.146c.379 0 .685.22.685.49v6.056c0 .27-.306.49-.685.49m0-14.074h-1.146c-.376 0-.683-.22-.683-.491v-6.057c0-.272.307-.491.683-.491h1.146c.379 0 .685.219.685.491v6.057c0 .271-.306.491-.685.491m0-14.076h-1.146c-.376 0-.683-.22-.683-.491v-6.055c0-.272.307-.492.683-.492h1.146c.379 0 .685.22.685.492v6.055c0 .271-.306.491-.685.491m0-14.076h-1.146c-.376 0-.683-.219-.683-.491v-6.056c0-.272.307-.491.683-.491h1.146c.379 0 .685.219.685.491v6.056c0 .272-.306.491-.685.491m0-14.076h-1.146c-.376 0-.683-.22-.683-.491v-6.056c0-.27.307-.49.683-.49h1.146c.379 0 .685.22.685.49v6.056c0 .271-.306.491-.685.491m0-14.075h-1.146c-.376 0-.683-.22-.683-.491v-6.056c0-.271.307-.49.683-.49h1.146c.379 0 .685.219.685.49v6.056c0 .27-.306.491-.685.491"/></g><path fill="#20262B" d="m.151 22.209 4.621-1.687 4.62-22.211L22.103-6.33c1.919-.7 2.885-2.772 2.165-4.638s-2.847-2.808-4.765-2.108L6.792-8.437l-18.494-13.772-4.622 1.688L-3.609-4.639-16.32.001l-5.202-3.232-3.466 1.265 5.346 7.029.724 8.714 3.466-1.265 1.733-5.764 12.711-4.64z" style="display:block" transform="translate(440 218)"/></g></svg>