<svg xmlns="http://www.w3.org/2000/svg" width="700" height="400" style="width:100%;height:100%;transform:translate3d(0,0,0);content-visibility:visible"><defs><mask id="b"><path fill="#fff" d="M-241.5-302.5h700v400h-700z"/><path d="M254.5-9h-321v72.5h321z"/></mask><mask id="h"><path fill="#fff" d="M-342-209h700v400h-700z"/><path d="M402 85h-738v162h738z"/></mask><mask id="g"><path fill="#fff" d="M-443.5-317h700V83h-700z"/><path d="M212.5-24H-26v63h238.5zM155-235.5s-57.5-20.5-94.5 6S8-137-2.5-122.5s-24 70.5-24 70.5l75 17L158-41.5z"/></mask><mask id="f"><path fill="#fff" d="M-443.5-317h700V83h-700z"/><path d="M212.5-24H-26v63h238.5z"/></mask><mask id="e"><path fill="#fff" d="M-115.5-317h700V83h-700z"/><path d="M212.5-24H-26v63h238.5zM78-236c-46 1.5-42.5-5-77 8s-78.5 15-57.5 76.5 35 120 35 120l178.5-14-16-99.5s-17-92.5-63-91"/></mask><mask id="d"><path fill="#fff" d="M-115.5-317h700V83h-700z"/><path d="M212.5-24H-26v63h238.5z"/></mask><mask id="c"><path fill="#fff" d="M-241.5-302.5h700v400h-700z"/><path d="M254.5-9h-321v72.5h321zM6-263.5C7.5-263.5 22.5-45 22.5-45s29.5 27.5 71 27.5S177-31 177-31l56.5-212.5s-229-20-227.5-20"/></mask><clipPath id="a"><path d="M0 0h700v400H0z"/></clipPath></defs><g clip-path="url(#a)"><g mask="url(#b)" style="display:block" transform="translate(241.5 302.5)"><path fill="#FFF" d="M124.374-56.774q-5.158 21.705-13.183 30.57-8.026 8.865-19.932 6.116-12.323-2.844-15.585-14.607-3.265-11.763 1.947-34.331l11.89-51.502q5.081-20.117 12.852-28.824 7.77-8.705 19.815-5.925 12.32 2.846 15.521 14.885 3.199 12.042-1.818 33.777zm56.757-32.978q9.396-40.703-3.87-67.245-13.27-26.54-46.772-34.277c-22.338-5.157-41.324-1.76-56.963 10.182q-23.46 17.918-32.888 58.76l-8.502 36.827Q22.77-44.94 36.04-18.4 49.304 8.142 82.949 15.91q33.363 7.702 56.824-10.214 23.459-17.914 32.888-58.758z"/><path fill="none" stroke="#8C8C8C" stroke-width="3" d="M124.374-56.774q-5.158 21.705-13.183 30.57-8.026 8.865-19.932 6.116-12.323-2.844-15.585-14.607-3.265-11.763 1.947-34.331l11.89-51.502q5.081-20.117 12.852-28.824 7.77-8.705 19.815-5.925 12.32 2.846 15.521 14.885 3.199 12.042-1.818 33.777zm56.757-32.978q9.396-40.703-3.87-67.245-13.27-26.54-46.772-34.277c-22.338-5.157-41.324-1.76-56.963 10.182q-23.46 17.918-32.888 58.76l-8.502 36.827Q22.77-44.94 36.04-18.4 49.304 8.142 82.949 15.91q33.363 7.702 56.824-10.214 23.459-17.914 32.888-58.758z"/></g><g mask="url(#c)" opacity=".1" style="display:block" transform="translate(241.5 302.5)"><g opacity="1"><path d="M124.374-56.774q-5.158 21.705-13.183 30.57-8.026 8.865-19.932 6.116-12.323-2.844-15.585-14.607-3.265-11.763 1.947-34.331l11.89-51.502q5.081-20.117 12.852-28.824 7.77-8.705 19.815-5.925 12.32 2.846 15.521 14.885 3.199 12.042-1.818 33.777zm56.757-32.978q9.396-40.703-3.87-67.245-13.27-26.54-46.772-34.277c-22.338-5.157-41.324-1.76-56.963 10.182q-23.46 17.918-32.888 58.76l-8.502 36.827Q22.77-44.94 36.04-18.4 49.304 8.142 82.949 15.91q33.363 7.702 56.824-10.214 23.459-17.914 32.888-58.758z"/><path fill="none" stroke="#000" stroke-width="3" d="M124.374-56.774q-5.158 21.705-13.183 30.57-8.026 8.865-19.932 6.116-12.323-2.844-15.585-14.607-3.265-11.763 1.947-34.331l11.89-51.502q5.081-20.117 12.852-28.824 7.77-8.705 19.815-5.925 12.32 2.846 15.521 14.885 3.199 12.042-1.818 33.777zm56.757-32.978q9.396-40.703-3.87-67.245-13.27-26.54-46.772-34.277c-22.338-5.157-41.324-1.76-56.963 10.182q-23.46 17.918-32.888 58.76l-8.502 36.827Q22.77-44.94 36.04-18.4 49.304 8.142 82.949 15.91q33.363 7.702 56.824-10.214 23.459-17.914 32.888-58.758z"/></g></g><g mask="url(#d)" style="display:block" transform="translate(115.5 317)"><path fill="#8C8C8C" d="m33.764-125.338.268-5.672 30.86 55.675-32.56 18.049zM45.67-208.78 3.79-185.567l.207.373L-3.84-28.463 12.836-4.24l69.967-38.783 21.286 38.401 41.88-23.214-21.286-38.402 18.393-10.195-17.91-32.31-18.393 10.194z"/></g><g mask="url(#e)" opacity=".1" style="display:block" transform="translate(115.5 317)"><path d="m33.764-125.338.268-5.672 30.86 55.675-32.56 18.049zM45.67-208.78 3.79-185.567l.207.373L-3.84-28.463 12.836-4.24l69.967-38.783 21.286 38.401 41.88-23.214-21.286-38.402 18.393-10.195-17.91-32.31-18.393 10.194z" opacity="1"/></g><g mask="url(#f)" style="display:block" transform="translate(443.5 317)"><path fill="#8C8C8C" d="m77.24-135.07 3.704-4.304-9.958 62.872-36.77-5.823zm60.756-58.423-47.294-7.49-.067.42L-12.034-81.882l-1.772 29.354 79.012 12.515-6.868 43.365 47.294 7.49 6.869-43.365 20.77 3.29 5.78-36.488-20.771-3.29z"/></g><g mask="url(#g)" opacity=".1" style="display:block" transform="translate(443.5 317)"><path d="m77.24-135.07 3.704-4.304-9.958 62.872-36.77-5.823zm60.756-58.423-47.294-7.49-.067.42L-12.034-81.882l-1.772 29.354 79.012 12.515-6.868 43.365 47.294 7.49 6.869-43.365 20.77 3.29 5.78-36.488-20.771-3.29z" opacity="1"/></g><path fill="none" stroke="#FFF" stroke-width="3" d="M52.071-130h3.576" style="display:block" transform="translate(532 229)"/><g mask="url(#h)" style="display:block" transform="translate(342 209)"><path d="m35.625-97.75-48.375.625s7.875 11.75 4.25 18.5c45.75-3.625 54.625 1.375 54.625 1.375z" opacity=".17"/><path d="M57.75-90c2.208 0 4 1.792 4 4s-1.792 4-4 4-4-1.792-4-4 1.792-4 4-4"/><path fill="none" stroke="#000" stroke-linecap="round" stroke-width="3" d="M44-133.75S60.5-110.25 57.5-87"/><path d="M-27.25-90c2.208 0 4 1.792 4 4s-1.792 4-4 4-4-1.792-4-4 1.792-4 4-4"/><path fill="none" stroke="#000" stroke-linecap="round" stroke-width="3" d="M-3-131.25s-21 20.5-24 43.75M1.95-86.604s3.79 6.875.231 16.459c4.929.851 7.824 1.783 7.824 1.783M49.373-83.433s7.048 3.458 9.63 13.35c4.526-2.13 7.432-3.027 7.432-3.027"/><path fill="#FFF" d="m7.5-162-12 10-9 55s7-2 14.5 13c24.5-4.5 36.5.5 51 2.5-1-14-11.5-17-11.5-17s-.228-20.947 7.46-37.643c3.705-8.046 7.93-13.332 15.04-15.154-10.24-6.237-23.022-9.087-33.147-9.863C16.266-162.202 7.5-162 7.5-162"/><path fill="none" stroke="#8C8C8C" stroke-linecap="round" stroke-linejoin="round" stroke-width="3" d="m7.5-162-12 10-9 55s7-2 14.5 13c24.5-4.5 36.5.5 51 2.5-1-14-11.5-17-11.5-17s-.228-20.947 7.46-37.643c3.705-8.046 7.93-13.332 15.04-15.154-10.24-6.237-23.022-9.087-33.147-9.863C16.266-162.202 7.5-162 7.5-162"/><path fill="none" stroke="#8C8C8C" stroke-linecap="round" stroke-linejoin="round" stroke-width="3" d="m-3.5-150.625 14.029.793L8-161.5"/><path fill="none" stroke="#8C8C8C" stroke-linecap="round" stroke-width="2" d="M-3-99.375c2.875-.875 8.875-1.75 23.875 0"/><path fill="#565656" d="M15.161-139.845c1.36.24 2.151 2.2 1.768 4.373s-1.798 3.745-3.157 3.505-2.15-2.2-1.767-4.373 1.798-3.745 3.156-3.505"/><path fill="#FFFEFE" d="M15.56-138.506a1.5 1.5 0 1 1-.523 2.956 1.5 1.5 0 0 1 .523-2.956M11.614-142.998s6.965 2.275 9.847-2.579"/><path fill="none" stroke="#8C8C8C" stroke-linecap="round" stroke-width="2" d="M11.614-142.998s6.965 2.275 9.847-2.579"/><path fill="#565656" d="M32.661-137.845c1.36.24 2.151 2.2 1.768 4.373s-1.798 3.745-3.157 3.505-2.15-2.2-1.767-4.373 1.798-3.745 3.156-3.505"/><path fill="#FFFEFE" d="M33.06-136.506a1.5 1.5 0 1 1-.523 2.956 1.5 1.5 0 0 1 .523-2.956M29.614-144.623s3.043 5.335 8.097 4.047"/><path fill="none" stroke="#8C8C8C" stroke-linecap="round" stroke-width="2" d="M29.614-144.623s3.043 5.335 8.097 4.047M14.375-121.125s12.5-6.875 13.625 1"/><path fill="none" d="m16.25-132-2.867.688-1.478 5.499L12 157.5"/></g><path fill="none" stroke="#505050" stroke-linecap="round" stroke-width="12.742" d="M-239.814-22.866C-200.75-28.098-150.694-42.122-128-79c40-65-15-92-53-72s0 130 65 132 104-86 169-74 72 78 141 85c18.948 1.922 36.312-.001 51.533-3.803" style="display:block" transform="translate(342 209)"/><path fill="none" stroke="#505050" stroke-linecap="round" stroke-width="14.186" d="M-239.814-22.866C-200.75-28.098-150.694-42.122-128-79c40-65-15-92-53-72-22.69 11.942-18.283 55.974 2.789 89.94" style="display:block" transform="translate(372 159)"/><g style="display:block"><path fill="none" stroke="#8C8C8C" stroke-linecap="round" stroke-width="3" d="M59 293h575M48.5 305.5H165m334 5.5h50m-410.5 12.5H173m421-12h58m-240.5 13h108"/><path d="M634 293H59s81 14 274 14 301-14 301-14" opacity=".12"/></g></g></svg>