<svg xmlns="http://www.w3.org/2000/svg" xmlns:xlink="http://www.w3.org/1999/xlink" width="1920" height="1920" style="width:100%;height:100%;transform:translate3d(0,0,0);content-visibility:visible"><defs><clipPath id="b"><path d="M0 0h1920v1920H0z"/></clipPath><path id="a" fill="#00C6FF" d="M346.667 0c0 191.458-155.208 346.667-346.667 346.667S-346.667 191.458-346.667 0c0-191.459 155.209-346.666 346.667-346.666 191.459 0 346.667 155.207 346.667 346.666" style="display:block" transform="matrix(.98385 0 0 .98385 947.009 981.835)"/><mask id="c" mask-type="alpha"><use xlink:href="#a"/></mask></defs><g clip-path="url(#b)"><path fill="#4D67CF" d="M346.667 0c0 191.458-155.208 346.667-346.667 346.667S-346.667 191.458-346.667 0c0-191.459 155.209-346.666 346.667-346.666 191.459 0 346.667 155.207 346.667 346.666" style="display:block" transform="matrix(.98385 0 0 .98385 959.999 960)"/><g mask="url(#c)" style="display:block"><path fill="#91A6FE" fill-opacity=".3" d="M276.093 4.69s-343.344 721.947-691.999 720c-8.868-.049 344 368 344 368s655.646-79.928 620-960c-3.82-94.283-272-128-272-128"/></g><path fill="none" stroke="#FFF" stroke-linecap="round" stroke-linejoin="round" stroke-width="55" d="m-153.033.588 101.629 101.63 204.436-204.436" style="display:block" transform="matrix(.98385 0 0 .98385 959.999 960)"/></g></svg>